<?xml version="1.0" encoding="UTF-8"?>
<svg id="Layer_1" data-name="Layer 1" xmlns="http://www.w3.org/2000/svg" viewBox="0 0 892.5 141">
  <defs>
    <style>
      .cls-1 {
        fill: #fe0404;
      }

      .cls-2 {
        fill: #fbf8f7;
      }

      .cls-3 {
        fill: #fe700b;
      }

      .cls-4 {
        fill: #04d5ca;
      }
    </style>
  </defs>
  <path class="cls-2" d="M0,141V0h892.5v141H0ZM125.1,52.24l101.25-1.03,351.54-3.89,164.43-1.69,87.29-1.36-2.99,14.92,60.66-28.64-45.35-25.93-4.76,13.71-99.28-1.32-118.15-1.72-355.95-5.3-94.59-1.43-96.43-1.36,13.32,45.5,39.01-.47ZM728.59,52.18l-41.41.71-173.22,1.57-224.91,2.29-179.57,1.85-36.39.59-4.26-15.45L4.98,72.45l76.23,30.82-1.94-15.71,340.04.52,388.84,1.15,14.53-37.69-94.09.63ZM389.52,127.06l113.62-1.65,97.04-1.37,106.67-1.53,108.68-1.52-2.34,14.94,66.18-29.78-54.04-26.24-3.95,14.12-226.9-.7-278.45-.74-223.54-.85,13.84,39.33,78.01-1.02,205.19-2.98Z"/>
  <polygon class="cls-4" points="125.1 52.24 86.09 52.71 72.77 7.22 169.2 8.58 263.79 10 619.75 15.3 737.9 17.02 837.18 18.33 841.94 4.63 887.29 30.56 826.64 59.2 829.63 44.28 742.33 45.63 577.9 47.32 226.36 51.22 125.1 52.24"/>
  <polygon class="cls-1" points="728.59 52.18 822.68 51.55 808.15 89.23 419.31 88.08 79.27 87.56 81.21 103.27 4.98 72.45 68.83 43.75 73.09 59.19 109.48 58.61 289.05 56.75 513.96 54.46 687.18 52.89 728.59 52.18"/>
  <polygon class="cls-3" points="389.52 127.06 184.32 130.04 106.31 131.07 92.47 91.74 316.01 92.59 594.46 93.33 821.37 94.03 825.31 79.91 879.35 106.15 813.18 135.93 815.52 120.99 706.84 122.51 600.18 124.04 503.13 125.41 389.52 127.06"/>
</svg>